<svg width="2596" height="738" xmlns="http://www.w3.org/2000/svg" xmlns:xlink="http://www.w3.org/1999/xlink"><defs><linearGradient x1="84.012%" y1="83.544%" x2="15.525%" y2="13.19%" id="a"><stop stop-color="#00C7FA" stop-opacity=".64" offset="0%"/><stop stop-color="#00C7FA" stop-opacity="0" offset="100%"/></linearGradient><linearGradient x1="49.078%" y1="100%" x2="10.814%" y2="20.556%" id="b"><stop stop-color="#08F" stop-opacity=".64" offset="0%"/><stop stop-color="#3525D3" offset="100%"/></linearGradient><linearGradient x1="12.612%" y1="93.561%" x2="57.226%" y2="29.771%" id="c"><stop stop-color="#00C7FA" stop-opacity=".32" offset="0%"/><stop stop-color="#00C7FA" stop-opacity="0" offset="100%"/></linearGradient><linearGradient x1="49.078%" y1="100%" x2="10.814%" y2="20.556%" id="e"><stop stop-color="#08F" offset="0%"/><stop stop-color="#3525D3" offset="100%"/></linearGradient><path d="M558.865 465.867c-.208.326-.419.651-.639.97.216-.321.423-.648.64-.97zM10.3 299.5c-26.698 21.55 5.727 66.946 16.25 97.516.115.34.241.675.357 1.015.54 1.55 1.076 3.103 1.641 4.642a297.11 297.11 0 0 0 9.105 22.345c8.066 17.72 91.763-158.776 29.738 51.347-62.025 210.123 90.867-78.269 104.792-65.265 13.942 12.988-37.04 133.874-20.63 144.166 17.057 10.642 33.83 18.564 49.647 24.663 1.976.761 3.907 1.574 5.856 2.269l5.813 1.972c3.834 1.282 7.537 2.654 11.255 3.64l6.146 1.777c2.048.567 4.061 1.241 6.126 1.678l12.233 2.886c16.352 3.385 32.46 5.312 48.044 6.141l11.601.348c1.834.099 3.626-.019 5.386-.03l5.197-.098c6.841.025 13.325-.632 20.216-1.02 1.698-.07 3.381-.327 5.074-.506l5.086-.584c3.395-.395 6.812-.723 10.193-1.358l10.202-1.698c3.396-.64 6.765-1.453 10.16-2.179l5.041-1.114c1.682-.415 3.357-.908 5.047-1.364 3.373-.94 6.776-1.854 10.134-2.833l9.833-3.291c1.604-.562 3.221-1.034 4.758-1.657l4.553-1.798c23.782-9.349 40.373-19.145 52.658-26.92l4.341-2.78c1.408-.891 2.773-1.756 4.036-2.683l7.206-5.068 3.252-2.288c1.012-.782 1.988-1.534 2.93-2.26 1.881-1.45-164.004-100.647-162.399-101.883 13.062-10.306 193.65 75.722 205.843 62.065l4.537-5.175c.748-.879 1.546-1.719 2.256-2.635l2.16-2.727 3.83-4.844c1.256-1.614 2.567-3.17 3.707-4.838l6.821-9.541c2.162-3.192 4.17-6.422 6.214-9.559 7.895-12.724 14.651-25.122 19.844-37.123l2-4.424c.69-1.448 1.198-2.955 1.796-4.407l3.374-8.589c.27-.702.562-1.392.805-2.095l.707-2.105 1.388-4.14c.903-2.732 1.823-5.386 2.643-8 1.453-5.278 2.921-10.258 4.126-14.998l3.01-13.434c1.437-8.442 2.785-15.635 3.305-21.573l.864-7.848c.211-2.272.25-4.206.335-5.764.136-3.122.15-4.776.036-4.854-.114-.079-.35 1.42-.7 4.376l-.618 5.512-1.15 7.573-.672 4.541-.359 2.455c-.139.836-.324 1.686-.49 2.558-.68 3.487-1.42 7.29-2.222 11.397-.893 4.086-2.038 8.433-3.147 13.085-.515 2.337-1.267 4.688-1.98 7.122l-2.22 7.502c-.189.643-.38 1.29-.57 1.941-.223.641-.445 1.287-.67 1.936l-1.376 3.941c-.93 2.658-1.88 5.379-2.855 8.163l-3.4 8.378-1.756 4.321c-.578 1.46-1.306 2.874-1.963 4.335l-4.124 8.888c-1.462 2.987-3.096 5.959-4.676 9.021l-2.42 4.619a8890.14 8890.14 0 0 0-2.679 4.576c-.9 1.537-1.81 3.086-2.726 4.648-.932 1.551-1.79 3.164-2.83 4.683l-2.379 3.647C592.238 413.479 609.3 358.484 609.3 299.5 609.3 134.091 475.21 0 309.8 0S236.395 117 10.3 299.5z" id="d"/><linearGradient x1="6.179%" y1="75.938%" x2="92.383%" y2="29.881%" id="f"><stop stop-color="#00C7FA" offset="0%"/><stop stop-color="#00C7FA" stop-opacity="0" offset="100%"/></linearGradient><linearGradient x1="92.964%" y1="30.596%" x2="4.174%" y2="83.39%" id="h"><stop stop-color="#00C7FA" offset="0%"/><stop stop-color="#00C7FA" stop-opacity=".48" offset="100%"/></linearGradient><linearGradient x1="50%" y1="100%" x2="50%" y2=".126%" id="i"><stop stop-color="#55FBDC" offset="0%"/><stop stop-color="#00C7FA" stop-opacity=".8" offset="100%"/></linearGradient><linearGradient x1="50%" y1="0%" x2="50%" y2="100%" id="j"><stop stop-color="#08F" offset="0%"/><stop stop-color="#00C7FA" offset="100%"/></linearGradient><linearGradient x1="50%" y1="0%" x2="50%" y2="99.011%" id="k"><stop stop-color="#00C7FA" offset="0%"/><stop stop-color="#00C7FA" stop-opacity=".24" offset="100%"/></linearGradient><linearGradient x1="50%" y1="0%" x2="66.362%" y2="96.878%" id="l"><stop stop-color="#FFF" offset="0%"/><stop stop-color="#55FBDC" stop-opacity=".32" offset="100%"/></linearGradient><linearGradient x1="50%" y1="0%" x2="66.362%" y2="96.878%" id="m"><stop stop-color="#00C7FA" offset="0%"/><stop stop-color="#55FBDC" stop-opacity=".32" offset="100%"/></linearGradient><linearGradient x1="50%" y1="0%" x2="66.362%" y2="96.878%" id="n"><stop stop-color="#FFF" offset="0%"/><stop stop-color="#FFF" stop-opacity=".32" offset="100%"/></linearGradient><linearGradient x1="50%" y1="0%" x2="50%" y2="100%" id="p"><stop stop-color="#00C7FA" offset="0%"/><stop stop-color="#55FBDC" offset="100%"/></linearGradient><path d="M53.435 12.797c25.843 0 86.94 55.217 86.94 81.163 0 25.947-20.95 46.98-46.792 46.98-25.84 0-61-21.033-61-46.98 0-25.946 35.16-46.98 61-46.98M150.307 212C135 123.706 277.947 106 210.205 72.763 142.463 39.526 145.245.06 93.583 0 41.9 0 0 42.068 0 93.96 0 145.851 165.614 300.294 150.307 212z" id="o"/><linearGradient x1="100%" y1="39.553%" x2="0%" y2="66.426%" id="q"><stop stop-color="#FFF" stop-opacity=".64" offset="0%"/><stop stop-color="#FFF" stop-opacity="0" offset="100%"/></linearGradient><linearGradient x1="50%" y1="0%" x2="66.362%" y2="96.878%" id="s"><stop stop-color="#3525D3" offset="0%"/><stop stop-color="#08F" stop-opacity=".32" offset="100%"/></linearGradient></defs><g fill="none" fill-rule="evenodd"><path d="M364.235 310.015c-.208.326-.419.651-.639.97.216-.321.423-.648.64-.97zM3.415 200.948c0 22.452 3.768 44.023 10.689 64.125.075.224.158.444.235.668.355 1.019.707 2.04 1.079 3.052a195.354 195.354 0 0 0 5.989 14.694c5.305 11.653 60.354-104.41 19.559 33.765s59.765-51.469 68.924-42.917c9.17 8.54-24.363 88.034-13.569 94.802 11.22 6.998 22.251 12.207 32.654 16.218 1.3.5 2.57 1.035 3.852 1.492l3.823 1.297c2.522.843 4.958 1.745 7.403 2.393l4.042 1.169c1.347.373 2.671.816 4.03 1.103l8.046 1.898c10.755 2.226 21.35 3.493 31.6 4.038 2.694.081 5.218.156 7.63.23 1.206.064 2.384-.013 3.542-.02l3.418-.065c4.5.016 8.764-.416 13.297-.67 1.117-.047 2.224-.216 3.337-.333l3.345-.385c2.233-.26 4.48-.475 6.704-.893l6.71-1.116c2.234-.421 4.45-.956 6.682-1.433l3.317-.733c1.106-.272 2.208-.597 3.32-.896 2.218-.619 4.456-1.22 6.664-1.863l6.468-2.165c1.055-.37 2.118-.68 3.13-1.09l2.994-1.182c15.642-6.147 26.554-12.59 34.634-17.702l2.856-1.828c.926-.586 1.823-1.155 2.654-1.764l4.74-3.333 2.139-1.504c.665-.515 1.307-1.01 1.926-1.487 1.238-.953-107.869-66.184-106.813-66.996 8.591-6.778 127.368 49.793 135.388 40.813l2.984-3.404c.492-.578 1.017-1.13 1.484-1.732l1.42-1.794 2.519-3.185c.827-1.061 1.689-2.084 2.439-3.181l4.486-6.274c1.422-2.1 2.742-4.223 4.087-6.286 5.193-8.367 9.637-16.52 13.052-24.412l1.316-2.91c.453-.951.788-1.942 1.18-2.897l2.22-5.648c.177-.462.37-.915.53-1.378l.464-1.384.913-2.722c.594-1.797 1.2-3.542 1.739-5.261.955-3.47 1.921-6.746 2.714-9.863l1.98-8.834c.944-5.551 1.831-10.281 2.173-14.186l.568-5.16c.14-1.495.164-2.766.22-3.79.09-2.054.1-3.142.024-3.193-.075-.052-.23.934-.46 2.878l-.407 3.624-.757 4.98-.44 2.986-.237 1.615c-.091.55-.213 1.108-.322 1.682l-1.462 7.494c-.587 2.687-1.34 5.546-2.07 8.605-.338 1.537-.833 3.083-1.303 4.683-.472 1.6-.96 3.245-1.46 4.934l-.375 1.276-.44 1.273-.905 2.592-1.877 5.367-2.237 5.51-1.155 2.841c-.38.96-.859 1.89-1.29 2.85l-2.713 5.846c-.962 1.964-2.037 3.918-3.076 5.932l-1.591 3.037-1.763 3.01-1.792 3.056c-.613 1.02-1.178 2.08-1.862 3.08l-1.565 2.397c19.365-30.485 68.152-117.321 30.587-105.436C245.516 248.998 309.198 4 200.404 4 91.611 4 3.416 92.177 3.416 200.948z" transform="rotate(1 3125.03 117867.544)" fill="url(#a)"/><path d="M259.54 136.214l-.352 4.867c-.08 1.626-.335 3.235-.52 4.85-.201 1.615-.37 3.234-.684 4.832-.285 1.601-.547 3.208-.851 4.806l-1.08 4.761-.27 1.19-.33 1.176-.659 2.351-.66 2.351c-.237.78-.512 1.546-.766 2.32l-.776 2.316c-.263.77-.5 1.55-.812 2.303l-1.769 4.551c-.14.383-.3.756-.471 1.126l-.496 1.115-.993 2.231c-.34.739-.638 1.498-1.015 2.22l-1.099 2.181c-1.41 2.938-3.074 5.741-4.695 8.568l-2.62 4.13c-.424.697-.899 1.36-1.371 2.025l-1.414 1.999c-.474.664-.936 1.337-1.422 1.993l-1.508 1.93-1.508 1.928c-.253.32-.497.647-.758.961l-.8.928-3.198 3.709-119.887-28.51c-4.58 4.655 184.764 24.028 179.554 27.986-5.25 3.902-88.5 24.471-94.244 27.604l-4.36 2.255c-1.47.72-2.972 1.37-4.457 2.059-1.476.71-3.008 1.29-4.529 1.897-1.524.6-3.034 1.238-4.597 1.734-6.16 2.245-12.572 3.8-19.026 4.977l-2.427.415c-.81.133-1.614.296-2.432.375l-4.886.59c-.812.119-1.633.15-2.45.216l-2.452.179-2.45.18-2.455.066-2.453.071c-.818.018-1.635.073-2.453.04l-4.903-.07c-.819.008-1.634-.05-2.449-.102l-2.447-.147-2.449-.146c-.813-.072-1.624-.174-2.438-.26-6.515-.604-12.974-1.842-19.31-3.578l-2.37-.672-1.186-.34c-.392-.12-.778-.261-1.168-.392l-4.661-1.61c-3.053-1.22-6.125-2.398-9.077-3.847l-2.233-1.042a15.494 15.494 0 0 1-1.102-.55l-1.09-.573-2.18-1.146-1.09-.572a16.024 16.024 0 0 1-1.077-.595l-4.249-2.481c-.718-.396-1.39-.867-2.084-1.303l-2.069-1.327c-.685-.449-1.392-.865-2.059-1.34l-2.003-1.42c-1.33-.955-2.694-1.864-3.961-2.9-1.285-1.015-2.587-2.007-3.856-3.04l-3.716-3.208a137.77 137.77 0 0 1-13.61-14.13 142.381 142.381 0 0 1-11.353-16.035l-2.476-4.25-2.267-4.365-.565-1.092c-.188-.365-.345-.744-.52-1.115l-1.018-2.238-1.016-2.24c-.33-.75-.61-1.521-.916-2.281l-.9-2.288c-.294-.764-.62-1.517-.866-2.3l-1.577-4.657-.198-.582-.169-.59-.337-1.183-.674-2.365c-.216-.79-.468-1.572-.655-2.37l-.556-2.396-.554-2.395c-.09-.4-.192-.797-.271-1.2l-.217-1.21-.865-4.841c-.407-3.252-.907-6.495-1.076-9.77-.313-3.261-.315-6.542-.415-9.82.022-1.639.074-3.279.109-4.92l.029-1.23c.004-.41.02-.82.058-1.228l.18-2.455.184-2.456c.034-.408.052-.819.1-1.226l.152-1.222.617-4.884c.58-3.228 1.078-6.474 1.895-9.648.38-1.593.723-3.193 1.215-4.754.464-1.568.906-3.142 1.393-4.7l1.619-4.623.409-1.154.462-1.133.924-2.266c2.513-6.017 5.389-11.89 8.792-17.469.793-1.429 1.717-2.779 2.597-4.157l1.33-2.061c.437-.691.94-1.339 1.408-2.01l1.426-2c.483-.661.93-1.348 1.452-1.98l3.04-3.862A132.898 132.898 0 0 1 45.31 34.092a121.574 121.574 0 0 1 12.433-9.584l-1.706 1.198-1 .706-.5.353-.483.376-1.928 1.51c-1.282 1.01-2.58 2-3.787 3.099-1.22 1.082-2.47 2.132-3.66 3.245l-3.504 3.408c-.596.556-1.133 1.17-1.692 1.762l-1.665 1.787c-.548.601-1.124 1.178-1.65 1.8l-1.577 1.862c-1.044 1.248-2.133 2.458-3.1 3.768-.988 1.292-2.001 2.565-2.975 3.867l-2.818 3.984c-3.66 5.378-7 10.983-9.932 16.809-2.855 5.86-5.287 11.93-7.213 18.156L7.23 96.9l-.165.589-.135.595-.268 1.191-.535 2.381c-.17.796-.372 1.585-.515 2.385l-.41 2.406-.41 2.404-.201 1.202-.144 1.211-.573 4.842c-.142 1.619-.229 3.243-.348 4.863-.045.81-.136 1.619-.145 2.432l-.049 2.437-.052 2.437-.028 1.218.032 1.219.028 1.084c.012.674.029 1.348.051 2.02l.046 1.807c.05 1.086.134 2.17.218 3.256l.06.816c.021.277.042.554.06.83.069.817.1 1.637.198 2.45l.3 2.44.3 2.44c.052.407.096.815.154 1.22l.211 1.212.845 4.847c.346 1.602.72 3.199 1.081 4.799.33 1.608.821 3.174 1.258 4.755l.671 2.366c.104.397.234.786.37 1.173l.395 1.164c2 6.247 4.63 12.277 7.634 18.094.789 1.589 1.652 3.137 2.54 4.671a128.183 128.183 0 0 0 16.167 22.532c.286.33.569.663.858.99l3.375 3.586c4.598 4.689 44.195-20.716 49.452-16.78 5.288 3.897-23.771 37.122-17.968 40.186l4.396 2.216 4.495 2.008c.375.165.747.339 1.125.498l1.147.447 2.292.893 2.292.895 2.221.744c.658.227 1.318.446 1.98.663l.466.155 1.167.39c.352.11.71.204 1.067.304a128.366 128.366 0 0 0 37.173 5.472c70.762 0 128.127-57.237 128.127-127.842 0-31.275-11.262-59.922-29.952-82.138a129.129 129.129 0 0 0-7.263-8.117 147.068 147.068 0 0 0-14.394-12.704c-5.053-3.85-15.21 44.272-16.103-10.427l-4.273-2.243c-1.442-.71-2.911-1.365-4.365-2.051l-1.092-.51-.546-.254-.557-.228-2.228-.912c-1.488-.598-2.953-1.254-4.47-1.757l-4.633-1.654-4.678-1.437-1.167-.36c-.39-.113-.787-.204-1.18-.308l-2.363-.604-2.362-.604c-.787-.206-1.59-.336-2.384-.508-6.35-1.424-12.849-2.189-19.478-2.534-1.664-.053-3.33-.139-4.995-.163l-5.002.07-1.251.019-1.25.077-2.497.162-2.5.164c-.834.054-1.66.18-2.49.267-6.654.65-13.24 1.964-19.706 3.694l-2.425.671-1.213.338-1.196.398-4.784 1.607-4.704 1.849-1.176.465c-.389.163-.77.345-1.154.516L77.4 11.342l-2.303 1.046c-.755.374-1.502.768-2.252 1.15l-2.25 1.154-1.124.577c-.37.2-.731.417-1.097.624-1.461.838-2.92 1.675-4.38 2.51L59.74 21.1a139.928 139.928 0 0 0-15.966 12.206 137.095 137.095 0 0 0-13.88 14.551l-3.068 3.873-2.878 4.02-.718 1.008-.67 1.04-1.338 2.08-1.337 2.081-1.239 2.142-1.234 2.144-.618 1.071c-.203.359-.38.732-.573 1.097l-2.26 4.399c-1.373 2.995-2.805 5.967-3.968 9.048l-.92 2.29-.232.573-.204.58-.407 1.164c-.537 1.552-1.108 3.092-1.624 4.649-.475 1.57-.95 3.14-1.423 4.709l-.354 1.178-.299 1.192-.598 2.386-.597 2.387c-.184.8-.325 1.608-.49 2.412l-.473 2.417-.236 1.21-.117.605-.088.61-.684 4.89c-.052.408-.12.816-.157 1.226l-.104 1.232-.201 2.469-.194 2.473c-.05.825-.052 1.653-.08 2.48-.032 1.654-.102 3.31-.095 4.965l.144 4.968.037 1.242.097 1.239.2 2.478.202 2.477c.058.827.203 1.644.3 2.467.224 1.642.415 3.288.665 4.924l.885 4.885.221 1.221.28 1.209.554 2.417.554 2.416c.2.802.442 1.593.662 2.39l.676 2.386c.234.793.43 1.597.712 2.375l1.591 4.698c.248.79.583 1.547.878 2.319l.912 2.307c.31.766.593 1.544.928 2.3l1.023 2.259 1.025 2.259c.174.375.333.757.52 1.125l.566 1.104 2.268 4.413 2.472 4.3c3.404 5.67 7.136 11.148 11.285 16.313 4.188 5.129 8.741 9.966 13.659 14.418 9.904 8.82 21.148 16.152 33.243 21.593l2.268 1.014 1.134.505 1.157.45 4.63 1.78c3.14 1.032 6.259 2.125 9.465 2.922 1.594.427 3.178.89 4.8 1.208 1.612.347 3.221.714 4.837 1.047l4.883.826 1.221.21c.408.061.82.102 1.23.154l2.46.302 2.461.307c.41.06.822.092 1.235.12l1.238.098c1.651.124 3.304.276 4.96.385l4.981.166 1.247.042c.416.016.83-.006 1.247-.008l2.495-.038c3.33.02 6.649-.296 9.967-.518 3.3-.41 6.607-.747 9.851-1.415 7.432-1.375 14.665-3.449 21.651-6.112 6.974-2.705 13.69-6.002 20.157-9.796 12.935-7.603 24.468-17.362 33.977-28.86 9.519-11.446 17.399-24.617 22.395-38.615 2.48-6.97 4.32-14.112 5.548-21.341l.436-2.716.218-1.357.154-1.366c.192-1.823.413-3.643.582-5.467l.322-5.491c.076-.914.042-1.834.062-2.751l.024-2.754c.022-2.386-.556-2.596-.614-.052l-.114 4.877z" transform="translate(2218 -118)" fill="url(#b)"/><path d="M40.77 55h170.922c-11.033 27.943-26.242 61.188-46.655 99.565C105.87 265.802 243.42 89.563 278.346 55h8.688c.546 3.471.997 6.965 1.359 10.475.116 1.072.21 2.148.309 3.223.02.236.047.47.066.705 1.853 21.18.289 43.02-5.143 64.806-26.314 105.54-133.22 169.761-238.783 143.442-10.594-2.642-18.905-7.257-25.447-13.414a137.068 137.068 0 0 0 14.304-9.63l3.86-3.084 3.709-3.27.926-.82.886-.862 1.772-1.726 1.771-1.728 1.69-1.807 2.527-2.717c.279-.304.536-.627.805-.94l3.192-3.777c2.011-2.61 4.075-5.184 5.901-7.924l1.413-2.025.353-.505.33-.52.659-1.042c.872-1.392 1.775-2.764 2.628-4.165l2.446-4.268.61-1.068.559-1.095 1.119-2.19 1.119-2.192c.359-.737.678-1.493 1.02-2.239l1.005-2.249.502-1.126.25-.563.223-.574 1.766-4.611c.143-.386.3-.768.43-1.16l.378-1.177.751-2.36.745-2.366c.235-.792.423-1.598.635-2.398.404-1.605.845-3.202 1.21-4.817l.978-4.872.243-1.22.185-1.228.362-2.46.36-2.459c.13-.818.173-1.648.263-2.471.151-1.65.335-3.297.46-4.947l.236-4.96.06-1.24v-1.24l.002-2.479.004-2.48c-.014-.826-.072-1.65-.107-2.477l-.122-2.477c-.05-.825-.059-1.653-.16-2.474l-.493-4.935c-.064-.826-.22-1.639-.334-2.458l-.37-2.452c-.13-.817-.23-1.638-.386-2.45l-.489-2.432-.49-2.431c-.086-.404-.155-.812-.254-1.214l-.303-1.203-1.217-4.81-1.442-4.746c-2.041-6.29-4.445-12.467-7.326-18.433-2.927-5.94-6.276-11.677-10.065-17.121A131.4 131.4 0 0 0 40.77 55zm-4.362 0h1.275l.366.315c.314.263.622.535.915.822l3.582 3.373c.611.548 1.16 1.158 1.738 1.739l1.717 1.758c.567.591 1.162 1.156 1.705 1.768l1.633 1.835c1.08 1.23 2.205 2.422 3.207 3.717 1.024 1.277 2.069 2.537 3.073 3.829l2.9 3.962A137.77 137.77 0 0 1 68.6 94.948a142.381 142.381 0 0 1 7.454 18.177l1.457 4.698 1.228 4.763.304 1.191c.101.398.17.803.255 1.203l.49 2.41.486 2.411c.152.806.251 1.62.379 2.43l.362 2.43c.115.812.263 1.619.326 2.436l.49 4.893.061.611.032.614.063 1.228.124 2.456c.033.82.103 1.637.105 2.457l.003 2.459.002 2.46c-.003.409.007.819-.006 1.228l-.061 1.229-.246 4.911c-.336 3.26-.578 6.533-1.15 9.761-.429 3.249-1.164 6.446-1.805 9.662-.39 1.592-.81 3.179-1.212 4.77l-.305 1.191c-.097.4-.204.795-.333 1.185l-.729 2.35-.73 2.352c-.125.39-.236.786-.373 1.173l-.424 1.156-1.7 4.62c-1.29 3.015-2.506 6.065-4.017 8.975-.728 1.466-1.422 2.948-2.253 4.359-.805 1.423-1.589 2.857-2.415 4.266l-2.617 4.14-.657 1.032-.706 1-1.41 2c-3.802 5.298-7.925 10.373-12.497 15.043-1.093 1.215-2.297 2.322-3.464 3.467l-1.76 1.71c-.582.574-1.218 1.092-1.824 1.642l-1.84 1.627c-.619.535-1.21 1.104-1.86 1.603l-3.831 3.079a133.603 133.603 0 0 1-13.804 9.262l-.212-.213 2.6-1.575c.706-.407 1.367-.885 2.045-1.336l2.025-1.367c.669-.462 1.36-.894 2.011-1.382l1.957-1.46c1.298-.981 2.63-1.916 3.867-2.975 1.254-1.036 2.528-2.048 3.77-3.098l3.641-3.247c4.777-4.417 9.291-9.128 13.459-14.144 4.1-5.068 7.835-10.436 11.112-16.069l2.348-4.284.292-.536.266-.55.53-1.1 1.056-2.2c.345-.737.719-1.46 1.038-2.208l.941-2.251.94-2.251.467-1.126.412-1.148 1.647-4.589c.503-1.545.953-3.107 1.433-4.66.227-.78.497-1.546.69-2.337l.595-2.363.599-2.363.3-1.18.244-1.195.216-1.063c.14-.66.276-1.32.405-1.98l.362-1.77c.196-1.07.357-2.146.52-3.222l.125-.808c.042-.275.084-.55.128-.824.117-.81.271-1.616.359-2.431l.255-2.445.258-2.446c.04-.407.09-.814.124-1.223l.067-1.228.267-4.912c.024-1.64.018-3.28.026-4.92.042-1.64-.086-3.277-.156-4.915l-.121-2.457a15.85 15.85 0 0 0-.096-1.226l-.124-1.223c-.544-6.537-1.75-13.004-3.368-19.348-.411-1.725-.904-3.428-1.424-5.122a128.183 128.183 0 0 0-10.685-25.592c-.203-.385-.405-.773-.612-1.157l-2.483-4.253c-3.425-5.603-47.722 10.242-51.959 5.225-4.275-4.987 31.513-30.823 26.547-35.114L36.408 55zm-48.193 45.343c-.07-.331-.142-.662-.215-.991 1.852 1.007 2.655 1.688 2.202 1.976l-1.987-.985z" transform="rotate(-80 1231.692 -850.062)" fill="url(#c)"/><g transform="translate(1635 -101)"><mask id="g" fill="#fff"><use xlink:href="#d"/></mask><use fill="url(#e)" xlink:href="#d"/><path d="M92.13 502.145c.007-.387.002-.774.008-1.161-.01.387-.01.775-.007 1.161zm362.012-105.044c59.24 91.223 33.299 213.208-57.943 272.461-91.242 59.254-213.233 33.337-272.474-57.886-21.125-32.53-31.41-68.971-31.773-105.085l-.006 2.863c-.03 1.21.075 2.407.116 3.597l.16 3.54c.055 1.17.11 2.332.162 3.483l.32 3.414c.225 2.255.388 4.48.65 6.65l.91 6.38c.16 1.04.265 2.081.47 3.093.194 1.015.388 2.019.579 3.012l1.124 5.839 1.349 5.524.652 2.667.325 1.307.38 1.275 1.463 4.932c.477 1.599.905 3.165 1.458 4.638 1.054 2.963 1.98 5.77 2.95 8.344l2.856 7.081c.22.54.423 1.075.646 1.586l.681 1.483 1.256 2.745 2.078 4.588 1.633 3.262c.866 1.755 1.272 2.666 1.181 2.664-.09-.002-.675-.92-1.718-2.69-.511-.89-1.183-1.97-1.88-3.299l-2.334-4.638c-1.84-3.46-3.673-7.91-5.903-13.081l-3.151-8.487c-1.033-3.046-2.007-6.318-3.096-9.75-.484-1.735-.927-3.528-1.407-5.358l-.717-2.78-.364-1.415c-.118-.475-.204-.96-.307-1.444-.396-1.94-.8-3.922-1.215-5.945-.19-1.015-.45-2.028-.587-3.074-.16-1.042-.319-2.094-.481-3.156-1.434-8.48-2.148-17.737-2.35-27.582.005-2.463-.045-4.963.004-7.498l.346-7.705c.031-1.329.197-2.656.313-3.997l.377-4.043.215-2.278c.063-.76.203-1.508.3-2.261.219-1.502.435-2.998.65-4.48 1.835-11.9 132.26-29.145 135.774-39.508.443-1.257-126.59 3.46-126.07 1.986l.806-2.295.974-2.427c.674-1.675 1.392-3.465 2.16-5.377.365-.963.808-1.93 1.266-2.925l1.399-3.088c3.991-8.689 9.635-20.035 19.405-33.71l1.868-2.623c.624-.894 1.347-1.733 2.03-2.618l4.246-5.337c1.502-1.743 3.052-3.466 4.575-5.193.77-.857 1.517-1.729 2.296-2.56l2.382-2.42c1.612-1.617 3.18-3.272 4.824-4.841l5.02-4.591c1.637-1.562 3.404-2.967 5.135-4.4l2.597-2.145c.87-.705 1.706-1.45 2.617-2.096 3.663-2.683 7.004-5.368 10.786-7.805l2.832-1.915c.967-.637 1.913-1.344 2.96-1.946l6.524-3.964c8.894-5.126 18.47-9.833 28.701-13.824l7.782-2.79c1.295-.5 2.647-.849 3.98-1.27l4.027-1.221c2.404-.788 4.938-1.358 7.512-2.024l3.913-.995c1.324-.315 2.68-.558 4.042-.847 10.91-2.302 23-3.941 36.22-4.183 12.738-.202 27.91 84.73 40.253 86.898 12.338 2.183-6.612-211.634 34.43-73.532 41.041 138.101 23.998 10.782 34.793 17.665 4.45 2.83 8.793 5.859 13.026 9.061.863.647 1.714 1.311 2.567 1.973.186.146.376.285.56.431 16.754 13.09 31.662 29.13 43.89 47.96z" fill="url(#f)" mask="url(#g)"/><path d="M262.13 110.145c.007-.387.002-.774.008-1.161-.01.387-.01.775-.007 1.161zM624.143 5.101c59.24 91.223 33.299 213.208-57.943 272.461-91.242 59.254-171.27-180.903-272.474-57.886-25.032 30.426-31.41-68.971-31.773-105.085l-.006 2.863c-.03 1.21.075 2.407.116 3.597l.16 3.54c.055 1.17.11 2.332.162 3.483l.32 3.414c.225 2.255.388 4.48.65 6.65l.91 6.38c.16 1.04.265 2.081.47 3.093.194 1.015.388 2.019.579 3.012l1.124 5.839 1.349 5.524.652 2.667.325 1.307.38 1.275 1.463 4.932c.477 1.599.905 3.165 1.458 4.638 1.054 2.963 1.98 5.77 2.95 8.344l2.856 7.081c.22.54.423 1.075.646 1.586l.681 1.483 1.256 2.745 2.078 4.588 1.633 3.262c.866 1.755 1.272 2.666 1.181 2.664-.09-.002-.675-.92-1.718-2.69-.511-.89-1.183-1.97-1.88-3.299l-2.334-4.638c-1.84-3.46-3.673-7.91-5.903-13.081l-3.151-8.487c-1.033-3.046-2.007-6.318-3.096-9.75-.484-1.735-.927-3.528-1.407-5.358l-.717-2.78-.364-1.415c-.118-.475-.204-.96-.307-1.444-.396-1.94-.8-3.922-1.215-5.945-.19-1.015-.45-2.028-.587-3.074-.16-1.042-.319-2.094-.481-3.156-1.434-8.48-2.148-17.737-2.35-27.582.005-2.463-.045-4.963.004-7.498l.346-7.705c.031-1.329.197-2.656.313-3.997l.377-4.043.215-2.278c.063-.76.203-1.508.3-2.261.219-1.502.435-2.998.65-4.48 1.835-11.9 132.26-29.145 135.774-39.508.443-1.257-126.59 3.46-126.07 1.986l.806-2.295.974-2.427c.674-1.675 1.392-3.465 2.16-5.377.365-.963.808-1.93 1.266-2.925l1.399-3.088c3.991-8.689 9.635-20.035 19.405-33.71l1.868-2.623c.624-.894 1.347-1.733 2.03-2.618l4.246-5.337c1.502-1.743 3.052-3.466 4.575-5.193.77-.857 1.517-1.729 2.296-2.56l2.382-2.42c1.612-1.617 3.18-3.272 4.824-4.841l5.02-4.591c1.637-1.562 3.404-2.967 5.135-4.4l2.597-2.145c.87-.705 1.706-1.45 2.617-2.096 3.663-2.683 7.004-5.368 10.786-7.805l2.832-1.915c.967-.637 1.913-1.344 2.96-1.946l6.524-3.964c8.894-5.126 18.47-9.833 28.701-13.824l7.782-2.79c1.295-.5 2.647-.849 3.98-1.27l4.027-1.221c2.404-.788 4.938-1.358 7.512-2.024l3.913-.995c1.324-.315 2.68-.558 4.042-.847 10.91-2.302 23-3.941 36.22-4.183 12.738-.202 27.91 84.73 40.253 86.898 12.338 2.183-6.612-211.634 34.43-73.532 41.041 138.101 23.998 10.782 34.793 17.665 4.45 2.83 8.793 5.859 13.026 9.061.863.647 1.714 1.311 2.567 1.973.186.146.376.285.56.431 16.754 13.09 31.662 29.13 43.89 47.96z" fill="url(#h)" mask="url(#g)"/></g><path d="M474.748 306.095l-.54 7.477c-.122 2.497-.513 4.969-.797 7.45-.308 2.48-.567 4.968-1.048 7.423-.437 2.46-.84 4.927-1.305 7.383l-1.656 7.314-.414 1.828-.504 1.807-1.01 3.612L466.46 354c-.363 1.196-.784 2.374-1.174 3.562l-1.19 3.558c-.403 1.184-.765 2.383-1.243 3.538l-2.712 6.992a23.582 23.582 0 0 1-.722 1.73l-.761 1.713-1.521 3.427c-.522 1.135-.979 2.302-1.556 3.411l-1.684 3.35c-2.162 4.513-4.713 8.82-7.197 13.163l-4.017 6.344c-.65 1.07-1.377 2.09-2.102 3.111l-2.166 3.07c-.728 1.02-1.435 2.055-2.18 3.063l-2.31 2.963-2.312 2.963c-.389.491-.764.994-1.163 1.476l-1.225 1.425-4.904 5.698L240.56 384.76c-7.022 7.152 283.207 36.914 275.222 42.994-8.048 5.994-135.653 37.593-144.458 42.406l-6.683 3.464c-2.253 1.104-4.556 2.105-6.832 3.162-2.263 1.091-4.61 1.984-6.942 2.916-2.336.922-4.65 1.901-7.046 2.663-9.444 3.448-19.27 5.836-29.163 7.646l-3.72.637c-1.242.204-2.475.454-3.73.577l-7.488.907c-1.245.18-2.503.229-3.755.33l-3.758.275-3.756.278-3.763.1-3.76.11c-1.254.027-2.507.111-3.76.061l-7.516-.106c-1.254.01-2.504-.078-3.753-.158l-3.751-.227-3.754-.224c-1.247-.11-2.49-.267-3.737-.398-9.987-.928-19.887-2.83-29.598-5.497l-3.635-1.033-1.816-.521c-.602-.185-1.193-.403-1.79-.603l-7.146-2.474c-4.678-1.875-9.388-3.684-13.913-5.91l-3.423-1.6a24.721 24.721 0 0 1-1.69-.845l-1.67-.88-3.341-1.762-1.67-.878a24.546 24.546 0 0 1-1.651-.914l-6.513-3.811c-1.101-.609-2.132-1.332-3.195-2.002l-3.171-2.038c-1.05-.69-2.133-1.33-3.155-2.059l-3.072-2.18c-2.038-1.468-4.128-2.864-6.071-4.457-1.97-1.558-3.965-3.083-5.91-4.67l-5.696-4.928a211.437 211.437 0 0 1-20.863-21.708 218.728 218.728 0 0 1-17.4-24.632l-3.796-6.528-3.476-6.706-.865-1.678c-.288-.56-.53-1.142-.796-1.712l-1.562-3.439-1.557-3.44c-.505-1.153-.934-2.338-1.404-3.505l-1.38-3.515c-.45-1.174-.95-2.33-1.326-3.533l-2.419-7.154-.302-.894-.26-.908-.516-1.816-1.033-3.634c-.332-1.214-.717-2.414-1.004-3.64l-.852-3.68-.85-3.68c-.137-.615-.295-1.225-.415-1.843l-.333-1.86-1.326-7.436c-.623-4.996-1.39-9.979-1.65-15.008-.478-5.011-.482-10.05-.634-15.087.033-2.518.112-5.037.166-7.557l.044-1.89c.007-.63.031-1.26.089-1.888l.278-3.77.28-3.773c.052-.628.08-1.258.153-1.884l.234-1.876.946-7.503c.887-4.96 1.651-9.946 2.905-14.823.581-2.446 1.107-4.905 1.862-7.303.71-2.409 1.388-4.826 2.135-7.22l2.48-7.102.628-1.772.709-1.742 1.416-3.48c3.851-9.244 8.26-18.265 13.477-26.836 1.214-2.195 2.63-4.27 3.98-6.386l2.039-3.167c.67-1.062 1.441-2.057 2.157-3.089l2.186-3.07c.74-1.016 1.427-2.071 2.227-3.043l4.66-5.933a203.962 203.962 0 0 1 20.81-21.755 186.4 186.4 0 0 1 19.057-14.724l-2.614 1.841-1.534 1.084-.766.543-.74.578-2.955 2.32c-1.965 1.55-3.956 3.07-5.806 4.76-1.87 1.662-3.784 3.275-5.608 4.985l-5.373 5.235c-.913.854-1.735 1.798-2.593 2.707l-2.552 2.745c-.84.924-1.723 1.81-2.528 2.765l-2.418 2.861c-1.6 1.918-3.27 3.777-4.751 5.79-1.516 1.983-3.069 3.939-4.562 5.939l-4.319 6.12c-5.61 8.262-10.73 16.873-15.223 25.822-4.377 9.003-8.104 18.328-11.056 27.892L88 245.7l-.251.904-.207.915-.412 1.83-.82 3.657c-.26 1.223-.57 2.435-.79 3.664l-.628 3.695-.626 3.694-.31 1.847-.22 1.86-.878 7.439c-.218 2.486-.352 4.98-.534 7.469-.07 1.246-.208 2.488-.223 3.737l-.075 3.744-.079 3.743-.043 1.872.05 1.872.042 1.665c.018 1.037.044 2.071.078 3.104l.07 2.776c.077 1.668.206 3.334.334 5.001.03.418.06.836.093 1.253.032.426.064.851.092 1.277.105 1.254.152 2.513.303 3.763l.461 3.748.46 3.75c.08.624.146 1.25.235 1.874l.323 1.861 1.295 7.445c.53 2.462 1.105 4.915 1.658 7.373.504 2.47 1.259 4.876 1.927 7.305l1.03 3.635c.16.61.359 1.207.565 1.801l.607 1.79c3.066 9.595 7.097 18.859 11.702 27.795 1.209 2.44 2.531 4.82 3.892 7.176a196.908 196.908 0 0 0 24.782 34.614c.438.507.872 1.017 1.314 1.52l5.175 5.509c7.047 7.203 67.742-31.823 75.8-25.777 8.105 5.986-36.437 57.027-27.541 61.734l6.737 3.405 6.89 3.084c.575.254 1.145.52 1.724.765l1.758.686 3.514 1.373 3.514 1.374 3.404 1.144c1.008.348 2.02.685 3.036 1.018l.713.239 1.788.597c.54.171 1.09.314 1.636.468 18.035 5.46 37.162 8.407 56.98 8.407 108.465 0 196.394-87.929 196.394-196.393 0-48.046-17.263-92.054-45.911-126.183-3.53-4.3-7.24-8.47-11.133-12.47-6.926-6.999-14.33-13.516-22.063-19.515-7.745-5.916-23.313 68.011-24.683-16.019l-6.549-3.445c-2.211-1.09-4.463-2.097-6.691-3.151l-1.674-.783-.837-.39-.854-.35-3.415-1.402c-2.28-.918-4.526-1.926-6.853-2.7l-7.1-2.54-7.17-2.207-1.79-.553c-.598-.174-1.205-.314-1.808-.473l-3.622-.928-3.62-.929c-1.206-.316-2.437-.516-3.654-.78-9.733-2.187-19.695-3.362-29.856-3.893-2.55-.08-5.104-.213-7.658-.25l-7.667.109-1.917.027-1.915.119-3.829.25-3.831.25c-1.278.083-2.544.278-3.818.411-10.199.997-20.294 3.017-30.205 5.675l-3.716 1.031-1.86.52-1.833.61-7.333 2.469-7.21 2.84-1.803.715c-.597.25-1.18.53-1.77.793l-3.53 1.605-3.53 1.607c-1.159.574-2.302 1.179-3.453 1.766l-3.447 1.773-1.724.887c-.567.308-1.12.64-1.682.959l-6.712 3.856-6.522 4.141a214.535 214.535 0 0 0-24.474 18.75 210.408 210.408 0 0 0-21.275 22.354l-4.702 5.95-4.412 6.177-1.1 1.547-1.026 1.597-2.052 3.196-2.05 3.198-1.898 3.29-1.893 3.293-.946 1.646c-.311.55-.584 1.123-.878 1.684l-3.465 6.758c-2.104 4.602-4.299 9.167-6.082 13.9l-1.41 3.519-.355.879-.313.893-.625 1.786c-.822 2.385-1.698 4.75-2.489 7.142-.728 2.413-1.454 4.825-2.182 7.234l-.541 1.81-.459 1.832-.916 3.665-.915 3.667c-.282 1.228-.498 2.47-.75 3.705l-.727 3.713-.361 1.859-.18.93-.134.936-1.049 7.512c-.079.628-.184 1.253-.241 1.884l-.16 1.893-.308 3.792-.297 3.8c-.076 1.267-.08 2.538-.12 3.809-.05 2.541-.159 5.084-.147 7.628l.22 7.631.057 1.908.148 1.904.307 3.806.31 3.806c.088 1.27.31 2.526.459 3.79.343 2.522.637 5.05 1.02 7.564l1.357 7.505.338 1.876.428 1.856.85 3.713.85 3.713c.306 1.232.678 2.446 1.014 3.67l1.037 3.666c.358 1.218.657 2.454 1.09 3.649l2.44 7.217c.38 1.213.893 2.376 1.345 3.562l1.398 3.544c.476 1.177.909 2.372 1.422 3.533l1.569 3.47 1.57 3.471c.267.576.511 1.163.798 1.73l.867 1.695 3.476 6.778 3.79 6.607c5.218 8.711 10.939 17.126 17.298 25.06 6.42 7.879 13.399 15.31 20.936 22.15 15.18 13.55 32.416 24.811 50.956 33.17l3.476 1.559 1.738.776 1.774.69 7.097 2.735c4.814 1.586 9.594 3.264 14.508 4.49 2.444.655 4.872 1.365 7.357 1.854 2.472.534 4.938 1.098 7.415 1.609l7.485 1.27 1.871.32c.626.096 1.257.157 1.884.239l3.773.463 3.772.471c.627.091 1.26.142 1.892.186l1.898.15c2.53.19 5.064.424 7.602.591l7.636.255 1.91.065c.638.025 1.275-.01 1.912-.012l3.825-.06c5.105.031 10.191-.454 15.277-.794 5.057-.63 10.127-1.148 15.1-2.174 11.391-2.114 22.478-5.299 33.188-9.39 10.689-4.155 20.984-9.22 30.895-15.049 19.827-11.68 37.506-26.672 52.08-44.336 14.592-17.583 26.67-37.817 34.328-59.32a195.8 195.8 0 0 0 8.504-32.785l.67-4.172.334-2.085.234-2.099c.296-2.8.634-5.595.893-8.398l.494-8.435c.117-1.405.064-2.818.095-4.226l.037-4.231c.033-3.665-.853-3.988-.94-.08l-.176 7.493z" transform="rotate(161 1040.83 286.783)" fill="url(#i)"/><path d="M2344.892 21.556c5.595 4.516 11.52 8.85 17.284 12.465 1.716 1.154 3.43 2.165 5.07 3.087-20.727-6.316-40.664-15.182-59.157-26.457-4.848-3.11-9.759-6.098-14.362-9.507l-3.499-2.482-1.745-1.24-.283-.22c-.98-1.111-2.47-2.822-4.43-4.96l-2.206-2.424c-.783-.861-1.632-1.752-2.454-2.775l-5.48-6.541c-.492-.584-.993-1.178-1.499-1.782-.499-.613-.975-1.265-1.474-1.909l-3.044-3.98-3.174-4.14-2.637-3.793c23.806 24.586 52.179 43.728 83.09 56.658" fill-opacity=".32" fill="#FFF"/><path d="M254.737 785.989c1.915 1.664 4.049 3.385 6.186 5.367 5.337 4.837 11.089 10.625 16.742 16.91-26.272-21.768-57.068-38.265-90.771-47.866" fill="url(#j)" transform="rotate(-101 1151.46 -409.555)"/><path d="M2261.758 214.527c1.191 2.24 2.567 4.611 3.852 7.227 3.249 6.429 6.545 13.894 9.57 21.787-16.726-29.737-39.565-56.175-67.589-77.216" fill="#FFF"/><path d="M33.91 39.787c-6.125-4.186-13.676-8.517-22.038-11.924a249.247 249.247 0 0 0-4.085-1.654c27.777 4.741 54.75 14.068 79.52 27.457.73.64 1.611 1.376 2.64 2.24.997.81 3.316 2.595 6.521 5.07l1.241.96 1.28 1.087 2.764 2.353c1.915 1.664 4.05 3.386 6.185 5.367 5.338 4.837 11.09 10.625 16.743 16.91-26.272-21.768-57.068-38.265-90.77-47.866" fill="url(#k)" transform="rotate(-70 1305.37 -937.955)"/><path d="M289.835 814.265c-6.125-4.186-13.676-8.517-22.038-11.924a249.247 249.247 0 0 0-4.085-1.654c27.777 4.741 54.75 14.068 79.519 27.457.73.64 1.612 1.376 2.64 2.239.998.81 3.317 2.596 6.522 5.07l1.241.961 1.279 1.087 2.765 2.353c1.915 1.664 4.049 3.386 6.185 5.367 5.338 4.837 11.09 10.625 16.743 16.91-26.272-21.768-57.068-38.265-90.771-47.866" fill="url(#k)" transform="translate(2205.704 -663.687)"/><path d="M198.374 13.735c-6.072-2.863-12.292-5.35-18.628-7.356-1.585-.495-3.19-.916-4.78-1.376-.799-.221-1.591-.459-2.39-.665l-2.414-.556-2.408-.554c-.804-.177-1.6-.39-2.412-.517l-4.84-.864-1.24-.22-1.25-.16-2.499-.32c-1.666-.214-3.33-.452-5.007-.55l-5.023-.393-5.036-.148c-.839-.017-1.679-.066-2.518-.054l-2.518.053-2.519.053c-.84.025-1.68.017-2.517.095l-5.027.36-1.257.094-1.252.152-2.501.305-2.503.307c-.837.086-1.659.271-2.489.402l-4.968.867c-3.275.759-6.58 1.407-9.802 2.384-3.261.837-6.43 1.974-9.625 3.033-1.575.593-3.137 1.219-4.705 1.828-1.58.583-3.107 1.293-4.641 1.984-3.1 1.319-6.068 2.908-9.068 4.431-2.915 1.676-5.879 3.274-8.676 5.142-2.872 1.754-5.57 3.764-8.317 5.7-2.638 2.08-5.331 4.095-7.83 6.344-1.272 1.098-2.559 2.179-3.755 3.36-1.213 1.16-2.444 2.304-3.642 3.48l-3.483 3.64-.871.91-.828.95-1.654 1.9-1.653 1.9c-.547.638-1.048 1.312-1.575 1.966-1.031 1.325-2.103 2.62-3.1 3.97l-2.932 4.099c-.502.674-.956 1.38-1.409 2.088l-1.367 2.117-1.346 2.087c-.428.708-.833 1.43-1.251 2.146-.818 1.44-1.684 2.854-2.46 4.319l-2.271 4.422c-.187.37-.385.735-.56 1.11l-.515 1.132-1.026 2.266-1.024 2.267c-.335.758-.617 1.539-.928 2.307-.601 1.546-1.233 3.08-1.805 4.636l-1.593 4.714L6.27 96.5c-.129.393-.231.796-.347 1.194l-.678 2.393c-.975 3.173-1.624 6.428-2.387 9.653l-.881 4.893c-.137.817-.31 1.628-.416 2.45l-.315 2.464-.314 2.464c-.103.82-.223 1.64-.27 2.467l-.383 4.949-.092 1.237-.034 1.24-.069 2.479c-.037 1.652-.127 3.304-.057 4.956l.104 4.952c.069 1.648.218 3.293.322 4.939l.173 2.467.289 2.456c.203 1.636.373 3.277.604 4.908.567 3.246 1.036 6.512 1.817 9.716.645 3.235 1.579 6.398 2.444 9.58.472 1.58 1.015 3.138 1.52 4.708.262.783.507 1.571.782 2.349l.886 2.31.89 2.312c.299.77.579 1.548.929 2.297l2.006 4.533c.321.763.705 1.496 1.076 2.235l1.116 2.218 1.12 2.216c.393.729.813 1.444 1.218 2.166.829 1.434 1.616 2.896 2.485 4.309l2.676 4.2a143.644 143.644 0 0 0 13.03 16.719 145.467 145.467 0 0 0 15.54 14.499l4.205 3.263 4.351 3.063 1.09.762 1.123.714 2.246 1.425 2.247 1.423 2.31 1.316 2.311 1.316 1.156.657 1.183.604 4.739 2.407c3.23 1.453 6.432 2.962 9.751 4.192 6.58 2.562 13.365 4.686 20.306 6.148.866.189 1.725.41 2.596.573l2.62.461 2.62.46 1.31.226 1.32.165 5.28.656c1.767.16 3.537.27 5.303.406.886.05 1.768.16 2.654.163l2.657.063 2.657.063c.442.007.885.027 1.327.024l1.328-.034 5.308-.138c1.766-.097 3.529-.256 5.293-.381.88-.078 1.765-.108 2.64-.226l2.63-.328 2.63-.329c.437-.058.876-.101 1.312-.171l1.304-.228 5.21-.91 5.156-1.149a52.12 52.12 0 0 0 1.803-.431 51.027 51.027 0 0 0 1.427-.454c.823-.277 1.378-.497 1.603-.626.45-.258-.416-.153-3.09.578l-4.917 1.099c-.823.17-1.636.39-2.467.521l-2.489.427-2.49.428-1.245.214-1.255.156a11513 11513 0 0 0-5.024.613c-.836.121-1.682.144-2.524.216l-2.527.183-2.528.182-2.536.063c-1.69.03-3.381.096-5.073.096l-5.076-.138c-6.758-.331-13.526-.965-20.168-2.298-6.642-1.283-13.22-2.942-19.564-5.225-6.343-2.236-12.566-4.845-18.491-8.02-5.936-3.144-11.707-6.622-17.096-10.626-10.861-7.886-20.515-17.387-28.602-28.04-7.868-10.394-14.324-21.906-18.96-34.115-.293-.761-.605-1.516-.881-2.284l-.779-2.32-.778-2.32c-.257-.775-.533-1.543-.738-2.334l-1.322-4.71a32.56 32.56 0 0 1-.593-2.372l-.542-2.384-.54-2.383c-.189-.792-.295-1.602-.445-2.402l-.838-4.81-.593-4.843c-.09-.808-.215-1.612-.275-2.422l-.172-2.43c-.563-6.474-.455-12.969-.083-19.421l.41-4.833c.053-.807.17-1.607.282-2.408l.327-2.401.328-2.4c.095-.803.284-1.59.421-2.386l.898-4.761 1.127-4.712c.197-.782.362-1.573.584-2.35l.684-2.323.683-2.324c.229-.774.443-1.553.724-2.311l1.594-4.577c.25-.768.557-1.516.863-2.264l.908-2.249.906-2.249c.306-.748.669-1.472 1-2.21.682-1.467 1.342-2.945 2.043-4.404l2.241-4.313c.732-1.49 1.622-2.896 2.44-4.34l1.251-2.156c.403-.728.888-1.405 1.327-2.11.907-1.393 1.789-2.804 2.713-4.186l2.897-4.066.724-1.017.77-.982 1.543-1.964 1.543-1.966c.521-.65 1.083-1.265 1.622-1.9 1.1-1.251 2.157-2.54 3.29-3.763l3.445-3.625c4.708-4.721 9.694-9.176 15.014-13.202 5.349-3.984 10.944-7.632 16.786-10.83 5.875-3.13 11.94-5.897 18.18-8.207 6.27-2.226 12.667-4.094 19.182-5.45 1.626-.35 3.273-.593 4.909-.895l2.457-.431 2.475-.31c1.652-.192 3.298-.44 4.954-.587l4.977-.368c6.64-.323 13.313-.373 19.946.266 6.883.607 13.76 1.644 20.483 3.375.842.21 1.694.38 2.527.624l2.5.728c1.66.505 3.347.926 4.977 1.534l4.922 1.713 4.837 1.953c6.396 2.728 12.614 5.888 18.56 9.52a150.823 150.823 0 0 1 16.931 12.232l3.957 3.435c1.285 1.182 2.533 2.402 3.803 3.6 1.291 1.175 2.456 2.477 3.674 3.726l1.81 1.888c.593.638 1.151 1.308 1.73 1.96l1.718 1.969c.576.654 1.154 1.306 1.683 1.998l3.249 4.09c2.044 2.815 4.127 5.605 5.968 8.554 3.76 5.838 7.161 11.913 9.937 18.253.757 1.557 1.374 3.173 2.022 4.775.64 1.604 1.317 3.194 1.846 4.837.556 1.633 1.142 3.255 1.671 4.895l1.437 4.96c.381 1.225.625 2.358.895 3.346.262.99.505 1.848.722 2.565.22.718.413 1.294.576 1.723.146.432.263.715.356.838.175.25.27-.144.16-1.232-.132-1.084-.452-2.867-1.005-5.413a132.4 132.4 0 0 0-14.678-36.518c-.803-1.476-1.742-2.872-2.642-4.296-.911-1.416-1.788-2.857-2.792-4.215-.98-1.374-1.947-2.76-2.94-4.127l-3.134-3.992-.784-.999-.828-.962-1.662-1.92-1.663-1.92c-.56-.634-1.162-1.232-1.741-1.85-1.178-1.216-2.315-2.472-3.527-3.652l-3.672-3.501c-4.993-4.534-10.271-8.77-15.85-12.569-5.61-3.749-11.448-7.136-17.485-10.079" fill="url(#l)" transform="translate(1460 -122)"/><path d="M879.239 566.785l-.343-4.711c-.155-1.563-.5-3.108-.759-4.656-.148-.772-.266-1.549-.446-2.312l-.636-2.27-.65-2.262-.329-1.128-.42-1.099-1.723-4.37c-1.382-2.804-2.701-5.644-4.439-8.242-3.306-5.295-7.037-10.407-11.647-14.749-.572-.544-1.098-1.145-1.716-1.638l-1.834-1.509c-1.237-.992-2.447-2.032-3.812-2.849-1.34-.852-2.672-1.729-4.065-2.492-1.428-.7-2.873-1.37-4.33-2.001-.76-.328-.683-.13.086.238 1.274.61 2.532 1.246 3.773 1.901 1.241.656 2.373 1.501 3.54 2.266l1.722 1.189c.575.39 1.083.877 1.623 1.314l3.151 2.712c.981.977 1.93 1.983 2.885 2.973.472.5.96.983 1.415 1.496l1.303 1.6c.854 1.075 1.762 2.099 2.577 3.199l2.384 3.352c3.029 4.496 5.725 9.287 7.523 14.448 1.053 2.526 1.636 5.203 2.339 7.839.314 1.327.465 2.686.689 4.03.204 1.347.437 2.691.454 4.054l.178 4.213c.017 1.403-.13 2.806-.201 4.206l-.143 2.1c-.037.7-.201 1.389-.298 2.083l-.705 4.149c-.324 1.364-.717 2.713-1.082 4.066l-.57 2.023-.742 1.966c-.512 1.304-.966 2.632-1.539 3.907l-1.856 3.765c-2.675 4.891-5.699 9.671-9.556 13.767-.469.522-.919 1.064-1.407 1.568l-1.529 1.451c-1.038.946-2.016 1.966-3.125 2.831l-3.356 2.558c-.552.439-1.144.817-1.75 1.175l-1.805 1.092c-2.361 1.535-4.993 2.575-7.532 3.751-1.32.474-2.653.917-3.981 1.361-.667.211-1.321.462-1.999.633l-2.045.473c-5.423 1.411-11.029 1.733-16.563 1.727l-4.157-.226-1.039-.059c-.345-.036-.688-.097-1.033-.145l-2.062-.308c-2.771-.315-5.455-1.077-8.155-1.763-1.345-.363-2.635-.902-3.952-1.355l-1.963-.718c-.647-.26-1.265-.582-1.898-.873-1.255-.604-2.521-1.19-3.756-1.831l-3.567-2.17c-4.625-3.07-9.005-6.585-12.64-10.805l-1.404-1.542-1.267-1.659c-.827-1.118-1.708-2.2-2.475-3.36-1.461-2.37-2.987-4.708-4.112-7.268-1.307-2.473-2.14-5.152-3.059-7.784-.399-1.336-.68-2.707-1.012-4.059l-.47-2.035-.287-2.068c-.178-1.379-.376-2.756-.524-4.134l-.151-4.151c-.015-.691-.07-1.382-.05-2.072l.109-2.071c.086-1.378.115-2.761.244-4.135a66.948 66.948 0 0 1 4.416-17.831l1.905-4.216c.71-1.366 1.509-2.689 2.276-4.031.73-1.369 1.686-2.587 2.577-3.853l1.366-1.88c.46-.623 1.004-1.178 1.507-1.768.882-.992 1.764-1.994 2.679-2.966l2.955-2.718c.504-.441.976-.921 1.508-1.329l1.599-1.22c1.079-.796 2.112-1.658 3.227-2.396 2.27-1.418 4.461-2.961 6.841-4.144 1.177-.611 2.304-1.328 3.506-1.87l3.574-1.679c.816-.393.198-.685-.641-.301-1.17.536-2.345 1.052-3.529 1.553-1.161.549-2.295 1.168-3.455 1.732-2.358 1.065-4.529 2.486-6.801 3.763-4.351 2.822-8.643 5.953-12.115 9.877-1.92 1.939-3.477 4.194-5.078 6.401-.789 1.112-1.422 2.331-2.125 3.499-.684 1.182-1.384 2.352-1.912 3.615l-1.681 3.728c-.509 1.261-.909 2.567-1.361 3.848l-.654 1.929c-.217.642-.34 1.313-.512 1.968l-.962 3.946c-.279 1.385-.45 2.789-.675 4.184l-.315 2.094c-.081.7-.097 1.405-.148 2.108l-.24 4.221c.012 1.408.086 2.817.135 4.227l.09 2.116c.065.702.178 1.401.267 2.103l.6 4.207 1.004 4.137c.181.687.33 1.384.545 2.06l.712 2.011c1.771 5.416 4.606 10.429 7.852 15.068l2.58 3.385c.908 1.088 1.898 2.107 2.85 3.156l1.449 1.552 1.57 1.43c1.06.938 2.074 1.93 3.18 2.811 2.262 1.709 4.485 3.478 6.959 4.881 2.368 1.573 4.969 2.731 7.519 3.982 1.299.57 2.648 1.029 3.974 1.538l2.002.739c.68.201 1.37.378 2.055.565 1.375.362 2.749.744 4.133 1.069l4.213.686c.704.098 1.404.248 2.112.299l2.125.14c1.417.077 2.834.206 4.252.223l4.261-.143c.709-.042 1.424-.022 2.129-.121l2.12-.277c5.682-.595 11.226-2.27 16.521-4.455l3.873-1.813c1.285-.618 2.478-1.406 3.719-2.113l1.84-1.097c.608-.375 1.167-.82 1.752-1.229 1.157-.84 2.318-1.676 3.457-2.54 2.127-1.905 4.377-3.701 6.259-5.87l1.461-1.577c.492-.522.974-1.053 1.396-1.634l2.612-3.422c.451-.56.82-1.177 1.198-1.788l1.125-1.841 1.105-1.853c.375-.613.642-1.286.964-1.929l1.812-3.917c.496-1.349.96-2.711 1.425-4.07.223-.683.477-1.355.667-2.046l.502-2.094c.314-1.399.688-2.784.927-4.192.358-2.836.876-5.65.881-8.497l.083-2.366.033-1.182c0-.393-.041-.787-.061-1.18" fill-opacity=".64" fill="url(#m)" transform="rotate(-167 1540.2 425.342)"/><path d="M1796.802 162.535c.63-.426 1.296-.805 2.013-1.116.722-.29 1.497-.49 2.287-.529.103-.006.106.342.01.355-.754.075-1.499.19-2.219.415-.71.243-1.396.576-1.959 1.066-.878.767-1.364 1.8-1.714 2.795a6.988 6.988 0 0 1 5.962-3.344 7 7 0 1 1-3.338 13.154c.412.372.89.688 1.42.882 1.325.485 2.797.58 4.27.328 1.494-.281 2.793-1.16 3.994-2.182.604-.526 1.052-1.215 1.397-1.946.33-.743.547-1.525.754-2.326.023-.092.295-.065.277.036-.149.832-.279 1.666-.525 2.498-.262.818-.63 1.631-1.195 2.298-1.117 1.308-2.504 2.526-4.233 2.996a9.058 9.058 0 0 1-5.132-.162c-1.63-.527-3.05-1.536-4.12-2.798-1.074-1.24-1.854-2.78-2.072-4.42-.24-1.646.234-3.275.876-4.715.672-1.483 2.013-2.454 3.247-3.285zm13.097 5.157c-.179-.625-.117-1.302-.115-2.048-.008-.731-.099-1.524-.52-2.12-.356-.501-.955-.847-1.506-1.158-.559-.316-1.063-.603-1.376-1.162-.108-.177.774-1.2.934-1.036a14.821 14.821 0 0 1 2.397 3.424c.652 1.276.647 2.689.897 3.959.005.028-.704.165-.71.14zm6.324-2.702c.849 3.11.486 6.356-.64 9.27-1.093 2.904-2.881 5.653-5.513 7.367-2.626 1.72-5.838 2.226-8.748 2.082a15.305 15.305 0 0 1-4.305-.842 14.243 14.243 0 0 1-3.8-2.082c-2.26-1.774-3.68-4.283-4.566-6.833-.467-1.281-.653-2.653-.65-3.983-.011-1.332.193-2.646.508-3.932.31-1.305.689-2.62 1.28-3.871.585-1.247 1.374-2.451 2.452-3.357 2.134-1.838 4.864-2.893 7.64-3.258.078-.008.126.434.052.44-2.001.238-4.258.436-6.012 1.69-1.744 1.247-2.815 3.11-3.72 4.864-.934 1.804-.92 3.879-.973 5.705-.101 2.457.463 4.988 1.742 7.104.629 1.058 1.239 2.157 2.054 3.174.804 1.012 1.8 1.96 3.017 2.548 1.215.582 2.543.92 3.88 1.068 1.337.13 2.677.073 4.033-.105 1.356-.188 2.656-.731 3.832-1.43 1.187-.696 2.233-1.575 3.25-2.496 1.01-.915 2.007-1.923 2.804-3.131.795-1.196 1.43-2.58 1.63-4.05.429-2.915-.21-5.961-1.557-8.612a13.938 13.938 0 0 0-5.642-5.811c-1.04-.568-2.286-.798-3.474-.915-1.195-.145-2.321-.176-3.43-.57-.362-.126-.145-1.108.255-1.018 1.518.325 3.019.665 4.5 1.13 1.479.46 2.933 1.102 4.19 2.004 1.335.95 2.574 2.053 3.61 3.367 1.028 1.313 1.848 2.836 2.3 4.483z" fill-opacity=".32" fill="#FFF"/><path d="M2370.218 213.535c.63-.426 1.296-.805 2.013-1.116.722-.29 1.497-.49 2.287-.528.103-.007.106.34.01.354-.754.075-1.5.19-2.22.415-.71.243-1.395.576-1.958 1.066-.878.767-1.364 1.8-1.714 2.795a6.988 6.988 0 0 1 5.962-3.344 7 7 0 1 1-3.338 13.154c.412.372.889.688 1.42.882 1.325.485 2.797.58 4.27.328 1.494-.281 2.793-1.16 3.994-2.182.604-.525 1.052-1.214 1.397-1.945.329-.743.547-1.525.754-2.326.023-.093.295-.066.277.035-.15.832-.28 1.666-.525 2.498-.262.819-.63 1.632-1.195 2.299-1.117 1.308-2.504 2.526-4.233 2.996a9.058 9.058 0 0 1-5.132-.163c-1.63-.527-3.051-1.536-4.12-2.798-1.074-1.24-1.854-2.78-2.072-4.42-.24-1.646.234-3.275.876-4.715.672-1.483 2.013-2.454 3.247-3.285zm13.097 5.157c-.18-.625-.117-1.302-.115-2.048-.008-.731-.1-1.524-.521-2.12-.355-.501-.954-.847-1.505-1.158-.56-.316-1.063-.603-1.376-1.162-.108-.177.774-1.2.934-1.036 1.015 1.08 1.769 2.21 2.397 3.424.652 1.276.647 2.689.897 3.959.005.028-.704.165-.711.141zm6.323-2.702c.85 3.11.486 6.356-.639 9.27-1.094 2.904-2.882 5.653-5.514 7.367-2.626 1.72-5.838 2.226-8.748 2.082a15.305 15.305 0 0 1-4.305-.842 14.243 14.243 0 0 1-3.8-2.082c-2.259-1.774-3.68-4.283-4.566-6.833-.467-1.281-.653-2.653-.65-3.983-.01-1.332.193-2.646.508-3.932.311-1.305.69-2.62 1.28-3.871.585-1.247 1.374-2.451 2.452-3.357 2.134-1.838 4.864-2.893 7.64-3.258.078-.008.126.434.052.44-2 .238-4.258.436-6.012 1.69-1.744 1.247-2.815 3.11-3.719 4.864-.935 1.804-.92 3.879-.974 5.705-.1 2.457.463 4.988 1.742 7.104.63 1.058 1.24 2.157 2.054 3.174.804 1.012 1.801 1.96 3.017 2.548 1.215.582 2.543.92 3.88 1.068 1.337.13 2.677.073 4.033-.105 1.356-.188 2.656-.731 3.832-1.43 1.187-.696 2.233-1.575 3.251-2.496 1.01-.915 2.006-1.923 2.803-3.131.795-1.196 1.431-2.58 1.63-4.05.43-2.915-.209-5.961-1.557-8.612a13.938 13.938 0 0 0-5.642-5.811c-1.04-.568-2.286-.798-3.474-.915-1.195-.145-2.32-.176-3.43-.57-.362-.126-.145-1.108.255-1.018 1.518.325 3.02.665 4.5 1.13 1.48.46 2.933 1.102 4.191 2.004 1.334.95 2.573 2.053 3.61 3.367 1.027 1.313 1.847 2.836 2.3 4.483z" fill-opacity=".48" fill="#FFF"/><path d="M1913.656 404.044c.4-.27.822-.511 1.276-.709.458-.184.95-.31 1.451-.335.065-.004.067.217.006.225-.478.048-.95.121-1.407.263-.45.155-.886.366-1.243.678-.557.487-.865 1.143-1.087 1.775a4.432 4.432 0 0 1 3.782-2.124c2.452 0 4.44 1.99 4.44 4.446a4.443 4.443 0 0 1-6.558 3.908c.262.237.564.437.901.56.84.309 1.774.369 2.709.209.947-.179 1.771-.736 2.533-1.386.383-.333.668-.771.886-1.235.21-.472.347-.969.479-1.478.014-.059.187-.042.175.023-.094.528-.177 1.058-.333 1.586-.166.52-.4 1.037-.758 1.46-.708.831-1.588 1.605-2.685 1.903a5.739 5.739 0 0 1-3.255-.103 5.79 5.79 0 0 1-2.613-1.777c-.682-.788-1.177-1.766-1.315-2.808-.152-1.045.149-2.08.556-2.994.426-.942 1.277-1.559 2.06-2.087zm8.84 2.954c-.126-.414-.082-.863-.08-1.357-.007-.485-.07-1.01-.37-1.405-.251-.332-.675-.561-1.065-.768-.396-.209-.753-.4-.975-.77-.076-.117.548-.795.662-.686a9.863 9.863 0 0 1 1.697 2.269c.462.846.458 1.782.635 2.624.004.018-.498.109-.503.093zm4.194-1.605c.563 2.092.322 4.275-.423 6.236-.724 1.953-1.908 3.802-3.651 4.955-1.74 1.158-3.867 1.497-5.794 1.4a9.998 9.998 0 0 1-2.85-.566 9.39 9.39 0 0 1-2.517-1.4c-1.496-1.194-2.437-2.882-3.024-4.597-.31-.862-.433-1.785-.43-2.68-.008-.895.127-1.78.336-2.644.206-.878.456-1.762.847-2.604.388-.839.91-1.649 1.624-2.258 1.413-1.237 3.221-1.946 5.06-2.192.051-.005.083.292.034.297-1.325.16-2.82.292-3.981 1.136-1.155.839-1.864 2.093-2.463 3.272-.62 1.213-.61 2.61-.645 3.837-.067 1.653.306 3.356 1.154 4.78.416.71.82 1.45 1.36 2.134.532.681 1.192 1.319 1.998 1.714.804.392 1.684.62 2.57.719.885.088 1.772.049 2.67-.071.898-.126 1.76-.492 2.538-.961.786-.47 1.479-1.06 2.153-1.68.669-.615 1.328-1.293 1.856-2.106.527-.805.948-1.736 1.08-2.724.284-1.961-.139-4.01-1.031-5.793a9.31 9.31 0 0 0-3.737-3.91c-.689-.381-1.514-.536-2.3-.615-.792-.097-1.538-.118-2.272-.383-.24-.085-.096-.746.169-.685 1.005.219 2 .447 2.98.76.98.31 1.942.741 2.775 1.348.884.64 1.704 1.381 2.391 2.265.68.883 1.223 1.908 1.523 3.016z" fill="#FFF"/><path d="M1637.583 357.724c.135.689.217 1.391.223 2.112-.014.718-.123 1.449-.376 2.133-.03.09-.328-.033-.304-.119.208-.667.378-1.342.447-2.034.05-.691.013-1.394-.2-2.049-.336-1.023-1.04-1.809-1.76-2.465a6.446 6.446 0 0 1 .695 6.271 6.462 6.462 0 0 1-8.476 3.418 6.463 6.463 0 0 1-1.507-11.001 4.052 4.052 0 0 0-1.262.888c-.89.95-1.501 2.166-1.818 3.508-.3 1.37-.021 2.79.416 4.18.228.702.653 1.331 1.15 1.888.513.548 1.1 1.015 1.706 1.48.071.053-.05.274-.13.223-.653-.427-1.316-.839-1.934-1.348-.602-.518-1.161-1.124-1.525-1.845-.71-1.42-1.245-3.038-1.021-4.676a8.347 8.347 0 0 1 1.988-4.3c1.036-1.194 2.406-2.037 3.865-2.49 1.442-.464 3.033-.57 4.506-.164 1.486.39 2.7 1.381 3.694 2.446 1.018 1.106 1.36 2.596 1.623 3.944zm-9.322 9.633c.6.07 1.156.37 1.792.642.627.258 1.338.467 2.003.316.559-.127 1.075-.522 1.544-.888.476-.371.907-.705 1.5-.775.19-.03.74 1.108.54 1.188a13.78 13.78 0 0 1-3.808.841c-1.33.104-2.536-.412-3.712-.655-.026-.006.118-.672.141-.67zm.496 6.091c-3.008-.409-5.688-1.918-7.802-3.965-2.114-2.016-3.84-4.576-4.357-7.487-.527-2.908.217-5.876 1.411-8.344a14.395 14.395 0 0 1 2.313-3.42 13.401 13.401 0 0 1 3.203-2.526c2.368-1.304 5.066-1.612 7.602-1.44 1.282.066 2.54.41 3.692.902 1.158.48 2.223 1.14 3.222 1.887 1.016.75 2.017 1.56 2.885 2.533.865.966 1.619 2.092 2.008 3.36.809 2.524.72 5.277.015 7.817-.022.07-.423-.051-.401-.118.53-1.82 1.188-3.848.746-5.83-.44-1.969-1.662-3.583-2.849-5.01-1.22-1.475-3.024-2.225-4.587-2.944-2.093-.991-4.495-1.434-6.8-1.105-1.148.156-2.325.28-3.506.612-1.173.324-2.361.839-3.318 1.676-.951.838-1.734 1.864-2.353 2.968-.605 1.11-1.047 2.292-1.392 3.532-.335 1.244-.343 2.57-.17 3.846.168 1.284.545 2.514.97 3.735.421 1.211.929 2.445 1.683 3.58.744 1.129 1.71 2.189 2.91 2.902 2.37 1.445 5.245 2.013 8.04 1.82a13.122 13.122 0 0 0 7.111-2.749c.875-.692 1.533-1.687 2.071-2.673.565-.981 1.006-1.945 1.755-2.762.243-.266 1.014.283.79.596-.84 1.196-1.688 2.37-2.635 3.483-.944 1.111-2.034 2.135-3.279 2.893-1.314.806-2.725 1.473-4.246 1.888-1.516.407-3.137.557-4.732.343z" fill="#08F"/><path d="M1953.11 546.256c.09.506.142 1.023.14 1.554a4.99 4.99 0 0 1-.29 1.575c-.024.066-.236-.021-.218-.085.156-.494.284-.992.34-1.503.042-.51.023-1.027-.124-1.507-.231-.75-.73-1.323-1.24-1.8a4.814 4.814 0 0 1 .439 4.614c-1.032 2.432-3.772 3.596-6.121 2.599-2.349-.997-3.415-3.777-2.383-6.21a4.9 4.9 0 0 1 1.405-1.881 3.02 3.02 0 0 0-.915.666c-.648.709-1.099 1.61-1.34 2.602-.227 1.012-.041 2.056.26 3.075.157.515.456.975.808 1.38.364.399.78.738 1.212 1.074.05.039-.04.203-.096.166-.465-.309-.937-.605-1.377-.975-.427-.376-.823-.817-1.077-1.344-.496-1.04-.866-2.227-.69-3.436a6.402 6.402 0 0 1 1.47-3.186 6.251 6.251 0 0 1 2.8-1.87c1.04-.357 2.183-.45 3.238-.165 1.064.274 1.927.992 2.63 1.767.721.805.953 1.9 1.128 2.89zm-6.788 7.185c.43.047.826.262 1.28.456.449.184.958.331 1.436.214.403-.099.778-.395 1.118-.67.346-.277.658-.527 1.085-.584.137-.024.52.81.377.87a9.855 9.855 0 0 1-2.744.656c-.957.09-1.817-.28-2.66-.448-.019-.004.091-.496.108-.494zm.298 4.483c-2.157-.273-4.068-1.359-5.566-2.847-1.5-1.465-2.715-3.335-3.06-5.474-.35-2.138.212-4.332 1.094-6.161a11.011 11.011 0 0 1 1.694-2.541 10.042 10.042 0 0 1 2.324-1.891c1.714-.984 3.655-1.236 5.475-1.134.92.037 1.82.278 2.643.63.828.342 1.586.819 2.297 1.359.723.542 1.434 1.13 2.048 1.839.613.703 1.143 1.526 1.41 2.455.558 1.853.467 3.882-.063 5.76-.016.051-.303-.034-.287-.083.398-1.347.89-2.847.592-4.302-.298-1.447-1.16-2.624-2-3.665-.862-1.074-2.15-1.61-3.266-2.124-1.494-.711-3.215-1.014-4.874-.75-.826.126-1.673.228-2.525.484-.845.25-1.704.64-2.4 1.266-.69.627-1.262 1.39-1.717 2.21a12.74 12.74 0 0 0-1.034 2.615c-.253.92-.27 1.896-.159 2.834.109.945.368 1.848.661 2.743.291.888.644 1.793 1.175 2.621.524.825 1.208 1.597 2.063 2.11 1.69 1.042 3.749 1.434 5.758 1.265 1.853-.161 3.65-.896 5.135-2.093.635-.518 1.116-1.257 1.512-1.989.416-.728.742-1.443 1.287-2.051.177-.199.726.198.562.431-.615.89-1.235 1.763-1.926 2.591-.688.828-1.481 1.593-2.382 2.163-.952.606-1.972 1.111-3.068 1.431-1.093.314-2.26.44-3.403.298z" fill="#55FBDC"/><path d="M1936.173 160.854a6.431 6.431 0 0 1 1.044-.58c.375-.15.777-.254 1.187-.274.054-.004.055.177.006.184-.392.039-.778.1-1.152.216-.369.126-.725.299-1.017.554-.455.398-.708.936-.89 1.452a3.626 3.626 0 0 1 3.095-1.738 3.635 3.635 0 0 1 3.633 3.638 3.635 3.635 0 0 1-5.366 3.198c.214.193.462.357.737.458.688.252 1.452.302 2.217.17.775-.145 1.45-.602 2.072-1.133.314-.273.546-.631.725-1.01.171-.387.284-.793.392-1.21.012-.048.153-.034.144.019-.078.432-.145.865-.273 1.298-.136.425-.327.848-.62 1.194-.58.68-1.3 1.313-2.197 1.557-.89.232-1.82.197-2.663-.084a4.737 4.737 0 0 1-2.139-1.454c-.557-.645-.962-1.445-1.075-2.297-.125-.856.121-1.702.455-2.45.348-.771 1.044-1.276 1.685-1.708zm6.491 2.145c-.084-.332-.055-.69-.054-1.086-.004-.388-.047-.808-.246-1.124-.167-.266-.45-.45-.71-.614-.264-.168-.502-.32-.65-.616-.05-.094.366-.637.441-.55a7.95 7.95 0 0 1 1.132 1.816c.307.676.305 1.425.423 2.099.002.015-.332.087-.336.075zm4.092-1.085c.443 1.674.254 3.42-.335 4.99-.572 1.561-1.506 3.04-2.882 3.963-1.373.926-3.053 1.198-4.574 1.12a7.802 7.802 0 0 1-2.25-.453 7.386 7.386 0 0 1-1.988-1.12c-1.18-.955-1.924-2.305-2.387-3.677-.244-.69-.341-1.428-.34-2.144-.006-.716.101-1.423.266-2.116.162-.702.36-1.409.669-2.083.306-.67.718-1.319 1.282-1.806 1.116-.99 2.543-1.557 3.994-1.753.041-.005.066.233.028.237-1.047.127-2.227.234-3.144.909-.911.67-1.471 1.674-1.944 2.617-.489.971-.481 2.088-.51 3.07-.052 1.323.243 2.685.912 3.823.328.57.647 1.161 1.073 1.708.42.545.942 1.055 1.578 1.372.635.313 1.33.495 2.028.574.7.07 1.4.04 2.109-.056.709-.101 1.389-.394 2.003-.77.621-.374 1.168-.847 1.7-1.343.528-.492 1.049-1.035 1.466-1.685.415-.643.748-1.388.852-2.179.224-1.569-.11-3.208-.814-4.635a7.407 7.407 0 0 0-2.95-3.127c-.544-.306-1.195-.43-1.816-.492-.625-.078-1.214-.095-1.794-.307-.189-.068-.075-.596.134-.548.793.175 1.578.358 2.352.608.774.248 1.534.593 2.192 1.079a9.216 9.216 0 0 1 1.887 1.812 7.01 7.01 0 0 1 1.203 2.412z" fill="#55FBDC" opacity=".803"/><path d="M347.52 193.847l-.343-4.71c-.155-1.564-.5-3.109-.759-4.657-.148-.772-.266-1.549-.446-2.312l-.636-2.27-.65-2.262-.329-1.128-.42-1.099-1.723-4.37c-1.382-2.804-2.7-5.644-4.439-8.242-3.306-5.295-7.037-10.407-11.647-14.749-.572-.544-1.098-1.145-1.716-1.638l-1.834-1.509c-1.237-.992-2.447-2.032-3.812-2.849-1.34-.852-2.672-1.729-4.065-2.492-1.428-.7-2.873-1.37-4.33-2-.76-.329-.683-.13.086.237 1.274.61 2.532 1.246 3.773 1.901 1.241.656 2.373 1.501 3.54 2.266l1.722 1.19c.575.39 1.083.876 1.623 1.313l3.151 2.712c.981.977 1.93 1.983 2.885 2.973.472.5.96.983 1.415 1.496l1.303 1.6c.854 1.075 1.762 2.1 2.577 3.2l2.384 3.351c3.03 4.496 5.725 9.287 7.523 14.448 1.053 2.526 1.636 5.203 2.34 7.84.313 1.326.464 2.685.688 4.03.204 1.346.437 2.69.454 4.053l.178 4.213c.017 1.403-.13 2.806-.2 4.206l-.144 2.1c-.037.7-.2 1.39-.298 2.083l-.705 4.15c-.324 1.363-.717 2.712-1.082 4.065l-.57 2.023-.742 1.966c-.512 1.304-.966 2.632-1.539 3.907l-1.856 3.765c-2.675 4.891-5.699 9.671-9.556 13.767-.469.522-.919 1.064-1.407 1.568l-1.529 1.451c-1.038.946-2.016 1.966-3.125 2.831l-3.356 2.558c-.552.44-1.144.817-1.75 1.175l-1.805 1.092c-2.36 1.535-4.993 2.575-7.532 3.751-1.32.474-2.653.917-3.98 1.361-.668.211-1.322.462-2 .633l-2.045.473c-5.423 1.411-11.029 1.733-16.563 1.727l-4.157-.226-1.039-.059c-.345-.036-.688-.097-1.033-.145l-2.062-.308c-2.77-.315-5.455-1.077-8.155-1.763-1.345-.363-2.635-.902-3.952-1.355l-1.963-.718c-.647-.26-1.265-.582-1.898-.873-1.255-.604-2.52-1.19-3.756-1.83l-3.567-2.17c-4.625-3.07-9.005-6.586-12.64-10.806l-1.404-1.542-1.267-1.659c-.827-1.118-1.708-2.2-2.475-3.36-1.46-2.37-2.987-4.708-4.112-7.268-1.307-2.473-2.14-5.152-3.059-7.784-.399-1.336-.68-2.707-1.012-4.059l-.47-2.035-.287-2.068c-.178-1.379-.376-2.756-.524-4.134l-.15-4.15c-.016-.692-.07-1.383-.05-2.073l.108-2.07c.086-1.379.115-2.762.244-4.136a66.948 66.948 0 0 1 4.416-17.83l1.905-4.217c.71-1.366 1.51-2.689 2.276-4.03.73-1.37 1.686-2.588 2.577-3.854l1.366-1.88c.46-.623 1.004-1.178 1.507-1.768.882-.992 1.764-1.994 2.68-2.966l2.954-2.718c.504-.44.976-.92 1.508-1.329l1.6-1.22c1.078-.796 2.111-1.658 3.226-2.396 2.27-1.418 4.461-2.96 6.841-4.144 1.177-.61 2.304-1.328 3.506-1.87l3.574-1.679c.816-.393.198-.685-.64-.3-1.17.535-2.346 1.051-3.53 1.552-1.16.55-2.295 1.168-3.455 1.732-2.358 1.065-4.529 2.486-6.8 3.763-4.352 2.822-8.644 5.953-12.116 9.877-1.92 1.94-3.477 4.194-5.078 6.401-.789 1.112-1.422 2.331-2.125 3.5-.684 1.181-1.384 2.351-1.912 3.614l-1.68 3.728c-.51 1.261-.91 2.567-1.362 3.848l-.654 1.93c-.217.641-.34 1.312-.512 1.967l-.962 3.946c-.279 1.385-.45 2.79-.675 4.184l-.315 2.094c-.08.7-.097 1.405-.148 2.108l-.24 4.221c.012 1.408.086 2.817.135 4.227l.09 2.116c.065.702.178 1.401.267 2.103l.6 4.207 1.004 4.137c.181.687.33 1.384.545 2.06l.712 2.011c1.771 5.416 4.606 10.43 7.852 15.068l2.58 3.385c.908 1.088 1.898 2.107 2.85 3.156l1.45 1.552 1.57 1.43c1.06.938 2.073 1.93 3.18 2.811 2.261 1.71 4.484 3.478 6.958 4.881 2.368 1.573 4.97 2.731 7.52 3.982 1.298.57 2.647 1.03 3.973 1.538l2.002.74c.68.2 1.37.377 2.055.564 1.375.362 2.75.744 4.133 1.07l4.213.685c.704.098 1.404.248 2.112.3l2.125.14c1.417.076 2.834.205 4.252.222l4.261-.143c.71-.042 1.424-.022 2.13-.12l2.12-.278c5.681-.595 11.225-2.27 16.52-4.455l3.873-1.813c1.285-.618 2.478-1.406 3.72-2.113l1.84-1.097c.607-.375 1.166-.82 1.751-1.229 1.157-.84 2.318-1.676 3.457-2.54 2.127-1.905 4.377-3.7 6.26-5.87l1.46-1.577c.492-.522.974-1.053 1.396-1.634l2.612-3.422c.451-.56.82-1.177 1.198-1.788l1.125-1.84 1.105-1.854c.375-.613.642-1.286.964-1.929l1.812-3.917c.496-1.349.96-2.71 1.425-4.07.223-.683.477-1.355.667-2.046l.502-2.094c.314-1.399.688-2.784.927-4.192.358-2.836.876-5.65.881-8.497l.083-2.366.033-1.182c0-.393-.04-.787-.06-1.18" fill="url(#n)" transform="translate(1533.719 234.938)"/><path d="M73.124 49.651c1.915 1.664 4.05 3.385 6.186 5.367 5.337 4.837 11.09 10.626 16.742 16.91C69.78 50.162 38.984 33.664 5.282 24.063" fill="url(#j)" transform="rotate(141 775.928 437.023)"/><g transform="translate(525 499)"><mask id="r" fill="#fff"><use xlink:href="#o"/></mask><use fill="url(#p)" xlink:href="#o"/><path d="M262.95 60.554l-23.456 47.225c-6.252-25.074-35.166-54.099-60.342-47.822-25.176 6.277-37.08 45.48-30.828 70.553 6.252 25.075 31.73 40.314 56.905 34.037 25.176-6.277 63.972-78.918 57.72-103.993zM93.098 202.74c-81.969 36.212 27.82-161.845 78.17-174.399 50.352-12.554 101.306 17.924 113.81 68.072 12.44 50.142-26.528 56.99-42.389 130.761-15.86 73.771-67.623-60.647-149.591-24.434z" fill="url(#q)" mask="url(#r)"/><path d="M160.239 95.785l-.343-4.711c-.155-1.563-.5-3.108-.759-4.656-.148-.772-.266-1.549-.446-2.312l-.636-2.27-.65-2.262-.329-1.128-.42-1.099-1.723-4.37c-1.382-2.804-2.701-5.644-4.439-8.242-3.306-5.295-7.037-10.407-11.647-14.749-.572-.544-1.098-1.145-1.716-1.638l-1.834-1.509c-1.237-.992-2.447-2.032-3.812-2.849-1.34-.852-2.672-1.729-4.065-2.492-1.428-.7-2.873-1.37-4.33-2.001-.76-.328-.683-.13.086.238 1.274.61 2.532 1.246 3.773 1.901 1.241.656 2.373 1.501 3.54 2.266l1.722 1.189c.575.39 1.083.877 1.623 1.314l3.151 2.712c.981.977 1.93 1.983 2.885 2.973.472.5.96.983 1.415 1.496l1.303 1.6c.854 1.075 1.762 2.099 2.577 3.199l2.384 3.352c3.029 4.496 5.725 9.287 7.523 14.448 1.053 2.526 1.636 5.203 2.339 7.839.314 1.327.465 2.686.689 4.03.204 1.347.437 2.691.454 4.054l.178 4.213c.017 1.403-.13 2.806-.201 4.206l-.143 2.1c-.037.7-.201 1.389-.298 2.083l-.705 4.149c-.324 1.364-.717 2.713-1.082 4.066l-.57 2.023-.742 1.966c-.512 1.304-.966 2.632-1.539 3.907l-1.856 3.765c-2.675 4.891-5.699 9.671-9.556 13.767-.469.522-.919 1.064-1.407 1.568l-1.529 1.451c-1.038.946-2.016 1.966-3.125 2.831l-3.356 2.558c-.552.439-1.144.817-1.75 1.175l-1.805 1.092c-2.361 1.535-4.993 2.575-7.532 3.751-1.32.474-2.653.917-3.981 1.361-.667.211-1.321.462-1.999.633l-2.045.473c-5.423 1.411-11.029 1.733-16.563 1.727l-4.157-.226-1.039-.059c-.345-.036-.688-.097-1.033-.145l-2.062-.308c-2.771-.315-5.455-1.077-8.155-1.763-1.345-.363-2.635-.902-3.952-1.355l-1.963-.718c-.647-.26-1.265-.582-1.898-.873-1.255-.604-2.521-1.19-3.756-1.831l-3.567-2.17c-4.625-3.07-9.005-6.585-12.64-10.805l-1.404-1.542-1.267-1.659c-.827-1.118-1.708-2.2-2.475-3.36-1.461-2.37-2.987-4.708-4.112-7.268-1.307-2.473-2.14-5.152-3.059-7.784-.399-1.336-.68-2.707-1.012-4.059l-.47-2.035-.287-2.068c-.178-1.379-.376-2.756-.524-4.134l-.151-4.151c-.015-.691-.07-1.382-.05-2.072l.109-2.071c.086-1.378.115-2.761.244-4.135a66.948 66.948 0 0 1 4.416-17.831l1.905-4.216c.71-1.366 1.509-2.689 2.276-4.031.73-1.369 1.686-2.587 2.577-3.853l1.366-1.88c.46-.623 1.004-1.178 1.507-1.768.882-.992 1.764-1.994 2.679-2.966l2.955-2.718c.504-.441.976-.921 1.508-1.329l1.599-1.22c1.079-.796 2.112-1.658 3.227-2.396 2.27-1.418 4.461-2.961 6.841-4.144 1.177-.611 2.304-1.328 3.506-1.87l3.574-1.679c.816-.393.198-.685-.641-.301-1.17.536-2.345 1.052-3.529 1.553-1.161.549-2.295 1.168-3.455 1.732-2.358 1.065-4.529 2.486-6.801 3.763-4.351 2.822-8.643 5.953-12.115 9.877-1.92 1.939-3.477 4.194-5.078 6.401-.789 1.112-1.422 2.331-2.125 3.499-.684 1.182-1.384 2.352-1.912 3.615l-1.681 3.728c-.509 1.261-.909 2.567-1.361 3.848l-.654 1.929c-.217.642-.34 1.313-.512 1.968l-.962 3.946c-.279 1.385-.45 2.789-.675 4.184l-.315 2.094c-.081.7-.097 1.405-.148 2.108L36 96.646c.012 1.408.086 2.817.135 4.227l.09 2.116c.065.702.178 1.401.267 2.103l.6 4.207 1.004 4.137c.181.687.33 1.384.545 2.06l.712 2.011c1.771 5.416 4.606 10.429 7.852 15.068l2.58 3.385c.908 1.088 1.898 2.107 2.85 3.156l1.449 1.552 1.57 1.43c1.06.938 2.074 1.93 3.18 2.811 2.262 1.709 4.485 3.478 6.959 4.881 2.368 1.573 4.969 2.731 7.519 3.982 1.299.57 2.648 1.029 3.974 1.538l2.002.739c.68.201 1.37.378 2.055.565 1.375.362 2.749.744 4.133 1.069l4.213.686c.704.098 1.404.248 2.112.299l2.125.14c1.417.077 2.834.206 4.252.223l4.261-.143c.709-.042 1.424-.022 2.129-.121l2.12-.277c5.682-.595 11.226-2.27 16.521-4.455l3.873-1.813c1.285-.618 2.478-1.406 3.719-2.113l1.84-1.097c.608-.375 1.167-.82 1.752-1.229 1.157-.84 2.318-1.676 3.457-2.54 2.127-1.905 4.377-3.701 6.259-5.87l1.461-1.577c.492-.522.974-1.053 1.396-1.634l2.612-3.422c.451-.56.82-1.177 1.198-1.788l1.125-1.841 1.105-1.853c.375-.613.642-1.286.964-1.929l1.812-3.917c.496-1.349.96-2.711 1.425-4.07.223-.683.477-1.355.667-2.046l.502-2.094c.314-1.399.688-2.784.927-4.192.358-2.836.876-5.65.881-8.497l.083-2.366.033-1.182c0-.393-.041-.787-.061-1.18" fill="url(#s)"/></g></g></svg>